<svg xmlns="http://www.w3.org/2000/svg" width="414" height="398" viewBox="0 0 414 398" version="1.1">
	<path d="M 30.973 24.250 C 29.359 27.806, 29.040 30.843, 29.022 42.851 L 29 57.202 35.750 68.851 L 42.500 80.500 42.500 205.500 L 42.500 330.500 35.688 330.797 L 28.876 331.094 29.188 356.297 C 29.459 378.169, 29.735 381.930, 31.276 384.750 L 33.051 388 212.582 388 L 392.112 388 394.298 383.250 C 396.347 378.795, 396.484 377.039, 396.492 355 L 396.500 331.500 390.026 331.196 C 386.410 331.027, 383.216 330.365, 382.791 329.696 C 382.373 329.038, 382.027 273.150, 382.021 205.500 C 382.014 104.289, 382.251 82.057, 383.359 80 C 384.099 78.625, 387.472 72.560, 390.853 66.523 L 397 55.546 397 44.983 C 397 34.646, 395.144 24.084, 392.840 21.307 C 391.954 20.240, 358.844 20, 212.329 20 L 32.902 20 30.973 24.250 M 39 38.175 C 39 38.821, 42.834 46.196, 47.520 54.563 C 53.648 65.507, 56.665 69.945, 58.270 70.375 C 61.657 71.283, 366.315 71.087, 367.750 70.176 C 368.783 69.520, 376 58.407, 376 57.473 C 376 57.316, 378.250 53.365, 381 48.693 C 383.750 44.020, 386 39.478, 386 38.599 C 386 37.140, 370.820 37, 212.500 37 C 80.278 37, 39 37.280, 39 38.175 M 60.461 89.250 C 60.200 89.938, 60.101 144.500, 60.243 210.500 L 60.500 330.500 76.750 330.775 L 93 331.050 93 244.475 C 93 149.177, 92.727 153.336, 99.119 151.108 C 100.868 150.499, 104.265 150, 106.668 150 C 117.643 150, 140.955 141.088, 161 129.231 C 176.180 120.251, 193.224 111.619, 200.849 109.051 C 208.586 106.445, 216.414 106.445, 224.151 109.051 C 231.776 111.619, 248.820 120.251, 264 129.231 C 284.045 141.088, 307.357 150, 318.332 150 C 320.735 150, 324.132 150.499, 325.881 151.108 C 332.273 153.336, 332 149.177, 332 244.475 L 332 331.050 348.250 330.775 L 364.500 330.500 364.754 209.250 L 365.008 88 212.973 88 C 92.265 88, 60.839 88.258, 60.461 89.250 M 205.073 126.024 C 198.097 128.533, 192.983 131.178, 170 144.165 C 147.572 156.838, 132.192 163.188, 115.500 166.666 L 111.500 167.500 111.244 249.250 L 110.988 331 136.994 331 C 151.297 331, 163 330.770, 163 330.489 C 163 330.207, 161.248 327.395, 159.107 324.239 C 150.871 312.100, 149.256 300.907, 151.644 272.500 C 152.568 261.500, 153.010 250.834, 152.626 248.797 C 152.170 246.384, 150.670 243.945, 148.319 241.797 C 146.335 239.984, 143.877 237.713, 142.856 236.750 C 141.605 235.570, 141 233.593, 141 230.680 C 141 227.163, 141.671 225.576, 144.612 222.140 C 146.599 219.819, 150.536 216.717, 153.362 215.246 C 157.956 212.855, 159.719 212.548, 170 212.354 L 181.500 212.136 182.254 207.318 C 185.152 188.799, 193.134 176.541, 206.640 169.867 C 213.731 166.364, 223.162 164.874, 231.700 165.910 C 239.197 166.819, 241.581 168.199, 242.981 172.443 C 244.281 176.381, 243.831 177.584, 238.398 184.702 C 231.978 193.113, 234.189 200.870, 247.521 216.708 C 250.666 220.444, 255.351 225.750, 257.933 228.500 C 269.856 241.198, 279.144 255.926, 282.528 267.500 C 285.008 275.980, 284.858 292.423, 282.226 300.674 C 279.612 308.870, 274.102 318.558, 268.531 324.755 C 266.039 327.526, 264 330.065, 264 330.397 C 264 330.729, 275.250 331, 289 331 L 314 331 314 249.117 L 314 167.233 311.750 166.630 C 310.512 166.299, 308.375 166.018, 307 166.006 C 299.381 165.942, 271.278 153.721, 248.941 140.758 C 230.986 130.338, 216.927 123.937, 212.215 124.036 C 211.272 124.056, 208.058 124.950, 205.073 126.024 M 212.390 186.638 C 202.236 193.524, 198.651 202.971, 199.188 221.427 C 199.486 231.690, 199.395 232.252, 197.139 234.083 C 194.549 236.186, 187.562 236.718, 186.436 234.897 C 184.971 232.526, 175.454 229.020, 170.500 229.025 C 162.974 229.033, 162.081 230.013, 165.241 234.788 C 170.459 242.673, 171.247 250.432, 169.100 272.799 C 167.294 291.619, 167.955 302.763, 171.307 310.031 C 172.710 313.073, 174.845 316.448, 176.051 317.531 L 178.244 319.500 177.372 315 C 174.549 300.434, 177.712 289.157, 189.766 270.810 C 199.679 255.722, 200.478 254.238, 202.051 248 C 203.409 242.614, 205.270 240.319, 208.930 239.515 C 212.990 238.624, 216.549 240.413, 222.327 246.250 C 230.030 254.032, 233.013 260.544, 233.647 270.965 C 234.280 281.361, 234.636 282.764, 236.233 281.167 C 236.875 280.525, 238.905 280, 240.745 280 C 249.413 280, 256.215 296.598, 253.015 309.937 C 252.333 312.781, 252.044 315.377, 252.373 315.706 C 253.399 316.733, 258.863 309.775, 261.958 303.500 C 265.891 295.524, 266.994 290.895, 266.962 282.500 C 266.914 270.118, 262.380 260.839, 248.291 244.294 C 243.704 238.907, 236.581 230.539, 232.463 225.697 C 220.844 212.037, 216.189 201.035, 217.346 189.968 C 217.689 186.685, 217.589 184, 217.124 184 C 216.659 184, 214.529 185.187, 212.390 186.638 M 206.823 276.618 C 198.147 289.190, 197.613 290.124, 195.426 296.566 C 192.734 304.497, 193.761 313.131, 198.524 322.598 L 202.500 330.500 213.219 330.784 L 223.939 331.067 226.897 326.984 C 230.219 322.398, 236.460 308.127, 235.544 307.211 C 235.217 306.884, 233.467 307.153, 231.654 307.808 C 225.113 310.173, 216.365 309.006, 211.750 305.152 C 209.340 303.139, 209.498 296.904, 212.087 291.829 C 216.767 282.655, 218.435 271.345, 215.667 267.559 C 214.453 265.899, 213.659 266.713, 206.823 276.618 M 32 359.003 L 32 370.005 212.750 369.753 L 393.500 369.500 393.795 361 C 393.957 356.325, 393.836 351.488, 393.526 350.250 L 392.962 348 212.481 348 L 32 348 32 359.003" stroke="none" fill="#000000" fill-rule="evenodd"/>
</svg>