<svg xmlns="http://www.w3.org/2000/svg" width="512" height="512" viewBox="0 0 512 512" version="1.1">
	<path d="M 38.028 47.602 C 28.927 50.048, 21.902 54.147, 15.024 61.024 C 2.798 73.251, -2.043 88.582, 1.047 105.295 C 2.186 111.457, 5.158 118.914, 8.204 123.250 C 9.934 125.712, 9.962 126, 8.468 126 C 7.551 126, 5.270 127.530, 3.400 129.400 L -0 132.800 0 296 L 0 459.200 3.400 462.600 L 6.800 466 50 466 L 93.200 466 96.600 462.600 C 99.828 459.372, 100 458.841, 100 452.100 L 100 445 256 445 L 412 445 412 452.100 C 412 458.841, 412.172 459.372, 415.400 462.600 L 418.800 466 462.055 466 L 505.310 466 509.155 461.958 L 513 457.916 513 294.791 C 513 205.073, 512.760 131.907, 512.467 132.200 C 512.173 132.493, 510.418 131.218, 508.567 129.367 C 506.715 127.515, 504.449 126, 503.532 126 C 502.038 126, 502.066 125.712, 503.796 123.250 C 506.788 118.990, 510.045 110.950, 510.693 106.226 C 511.015 103.872, 511.666 101.706, 512.140 101.414 C 512.613 101.121, 513 97.909, 513 94.274 C 513 90.640, 512.688 87.979, 512.307 88.360 C 511.926 88.741, 511.009 86.691, 510.271 83.805 C 508.034 75.066, 503.853 67.902, 496.976 61.024 C 477 41.049, 447 41.049, 427.024 61.024 C 414.798 73.251, 409.957 88.582, 413.047 105.295 C 414.186 111.457, 417.158 118.914, 420.204 123.250 C 421.934 125.712, 421.962 126, 420.468 126 C 419.551 126, 417.270 127.530, 415.400 129.400 L 412 132.800 412 159.400 L 412 186 400.500 186 L 389 186 389 175.450 C 389 161.124, 386.765 157, 379 157 C 372.021 157, 369 161.412, 369 171.605 L 369 178.310 358.750 168.363 C 348.702 158.614, 340.223 152.007, 330.750 146.547 L 326 143.810 326 131.952 C 326 118.868, 325.098 115.619, 320.855 113.425 C 317.367 111.621, 314.633 111.621, 311.145 113.425 C 307.285 115.421, 306 118.935, 306 127.493 L 306 134.892 300.273 132.922 C 294.002 130.764, 276.836 127.223, 270.500 126.780 L 266.500 126.500 266 109.165 L 265.500 91.830 262.234 88.915 C 257.955 85.095, 254.045 85.095, 249.766 88.915 L 246.500 91.830 246 109.165 L 245.500 126.500 241.500 126.780 C 235.203 127.220, 218.014 130.759, 211.821 132.890 L 206.187 134.828 205.844 125.435 C 205.526 116.745, 205.294 115.837, 202.750 113.294 C 198.913 109.459, 193.088 109.459, 189.250 113.293 C 186.551 115.989, 186.494 116.299, 186.175 129.969 L 185.851 143.897 181.175 146.591 C 171.781 152.004, 163.274 158.637, 153.250 168.363 L 143 178.310 143 171.605 C 143 161.412, 139.979 157, 133 157 C 125.154 157, 123 161.082, 123 175.950 L 123 187 111.500 187 L 100 187 100 159.900 L 100 132.800 96.600 129.400 C 94.730 127.530, 92.449 126, 91.532 126 C 90.038 126, 90.066 125.712, 91.796 123.250 C 94.842 118.914, 97.814 111.457, 98.953 105.295 C 102.043 88.582, 97.202 73.251, 84.976 61.024 C 72.234 48.283, 54.433 43.193, 38.028 47.602 M 40.492 67.736 C 19.405 75.286, 13.330 101.330, 29 117 C 35.138 123.138, 40.900 125.459, 50 125.459 C 59.100 125.459, 64.862 123.138, 71 117 C 77.138 110.862, 79.459 105.100, 79.459 96 C 79.459 86.900, 77.138 81.138, 71 75 C 63.050 67.050, 50.653 64.098, 40.492 67.736 M 452.492 67.736 C 431.405 75.286, 425.330 101.330, 441 117 C 447.138 123.138, 452.900 125.459, 462 125.459 C 471.100 125.459, 476.862 123.138, 483 117 C 489.138 110.862, 491.459 105.100, 491.459 96 C 491.459 86.900, 489.138 81.138, 483 75 C 475.050 67.050, 462.653 64.098, 452.492 67.736 M 0.328 95.500 C 0.333 99.350, 0.513 100.802, 0.730 98.728 C 0.946 96.653, 0.943 93.503, 0.722 91.728 C 0.501 89.952, 0.324 91.650, 0.328 95.500 M 0.488 296 C 0.488 385.925, 0.606 422.712, 0.750 377.750 C 0.894 332.787, 0.894 259.212, 0.750 214.250 C 0.606 169.287, 0.488 206.075, 0.488 296 M 20 296 L 20 446 50 446 L 80 446 80 296 L 80 146 70 146 L 60 146 60 172.600 L 60 199.200 56.600 202.600 C 54.150 205.050, 52.306 206, 50 206 C 47.694 206, 45.850 205.050, 43.400 202.600 L 40 199.200 40 172.600 L 40 146 30 146 L 20 146 20 296 M 239.521 147.115 C 231.603 148.268, 217.820 151.754, 211.268 154.262 L 206 156.278 206 167.639 C 206 173.887, 206.163 179, 206.362 179 C 206.560 179, 210.546 177.209, 215.218 175.019 C 223.576 171.102, 237.857 167.021, 243.250 167.007 L 246 167 246 156.500 C 246 150.725, 245.887 146.055, 245.750 146.122 C 245.613 146.189, 242.809 146.636, 239.521 147.115 M 266 156.666 L 266 167 268.750 167.007 C 274.143 167.021, 288.424 171.102, 296.782 175.019 C 301.454 177.209, 305.440 179, 305.638 179 C 305.837 179, 306 173.887, 306 167.639 L 306 156.278 300.732 154.262 C 293.949 151.666, 280.228 148.252, 272.250 147.175 L 266 146.331 266 156.666 M 432 296 L 432 446 462 446 L 492 446 492 296 L 492 146 482 146 L 472 146 472 172.600 L 472 199.200 468.600 202.600 C 466.150 205.050, 464.306 206, 462 206 C 459.694 206, 457.850 205.050, 455.400 202.600 L 452 199.200 452 172.600 L 452 146 442 146 L 432 146 432 296 M 179 172.042 C 175.425 174.791, 168 181.649, 162.500 187.280 C 156.880 193.034, 150.419 198.609, 147.750 200.008 L 143 202.497 143 213.316 C 143 225.937, 141.933 225.467, 155.793 218.950 C 165.815 214.238, 173.952 208.136, 180.884 200.134 L 186.057 194.162 185.779 180.602 L 185.500 167.042 179 172.042 M 326 180.517 L 326 194.158 331.132 200.059 C 333.955 203.304, 338.703 207.800, 341.682 210.050 C 347.206 214.221, 361.283 221.393, 366.250 222.567 L 369 223.217 369 213.293 L 369 203.368 364.750 200.981 C 362.413 199.668, 354.875 192.948, 348 186.047 C 341.125 179.146, 333.363 172.010, 330.750 170.188 L 326 166.876 326 180.517 M 235.373 188.979 C 227.627 191.009, 218.231 195.342, 210.752 200.332 L 206.004 203.500 206.002 234.750 L 206 266 226 266 L 246 266 246 226.500 C 246 189.527, 245.888 187.004, 244.250 187.055 C 243.287 187.085, 239.293 187.951, 235.373 188.979 M 266 226.500 L 266 266 286 266 L 306 266 305.998 234.750 L 305.996 203.500 301.248 200.332 C 293.589 195.222, 284.330 191.003, 276.234 188.932 C 272.079 187.869, 268.077 187, 267.340 187 C 266.243 187, 266 194.151, 266 226.500 M 389 216 L 389 226 400.500 226 L 412 226 412 216 L 412 206 400.500 206 L 389 206 389 216 M 100 217 L 100 227 111.500 227 L 123 227 123 217 L 123 207 111.500 207 L 100 207 100 217 M 180.894 227.304 C 171.206 234.591, 160.812 239.781, 149.500 242.984 L 143.500 244.682 143.243 315.341 L 142.987 386 164.493 386 L 186 386 186 305 C 186 260.450, 185.840 224, 185.644 224 C 185.448 224, 183.310 225.487, 180.894 227.304 M 326 304.941 L 326 386 347.500 386 L 369 386 369 315.039 L 369 244.077 364.750 243.013 C 353.947 240.307, 339.803 233.744, 331.500 227.584 C 329.850 226.360, 327.938 225.026, 327.250 224.620 C 326.254 224.032, 326 240.367, 326 304.941 M 43.400 229.400 C 38.787 234.013, 38.787 237.987, 43.400 242.600 C 45.850 245.050, 47.694 246, 50 246 C 54.446 246, 60 240.446, 60 236 C 60 231.554, 54.446 226, 50 226 C 47.694 226, 45.850 226.950, 43.400 229.400 M 455.400 229.400 C 452.950 231.850, 452 233.694, 452 236 C 452 238.306, 452.950 240.150, 455.400 242.600 C 457.850 245.050, 459.694 246, 462 246 C 464.306 246, 466.150 245.050, 468.600 242.600 C 471.050 240.150, 472 238.306, 472 236 C 472 233.694, 471.050 231.850, 468.600 229.400 C 466.150 226.950, 464.306 226, 462 226 C 459.694 226, 457.850 226.950, 455.400 229.400 M 389 316 L 389 386 400.500 386 L 412 386 412 316 L 412 246 400.500 246 L 389 246 389 316 M 100 316.500 L 100 386 111.500 386 L 123 386 123 316.500 L 123 247 111.500 247 L 100 247 100 316.500 M 206 296 L 206 306 256 306 L 306 306 306 296 L 306 286 256 286 L 206 286 206 296 M 206 356 L 206 386 226 386 L 246 386 246 356 L 246 326 226 326 L 206 326 206 356 M 266 356 L 266 386 286 386 L 306 386 306 356 L 306 326 286 326 L 266 326 266 356 M 100 415.500 L 100 425 111.500 425 L 123 425 123 415.500 L 123 406 111.500 406 L 100 406 100 415.500 M 143 415.500 L 143 425 164.500 425 L 186 425 186 415.500 L 186 406 164.500 406 L 143 406 143 415.500 M 206 415.500 L 206 425 226 425 L 246 425 246 415.500 L 246 406 226 406 L 206 406 206 415.500 M 266 415.500 L 266 425 286 425 L 306 425 306 415.500 L 306 406 286 406 L 266 406 266 415.500 M 326 415.500 L 326 425 347.500 425 L 369 425 369 415.500 L 369 406 347.500 406 L 326 406 326 415.500 M 389 415.500 L 389 425 400.500 425 L 412 425 412 415.500 L 412 406 400.500 406 L 389 406 389 415.500" stroke="none" fill="#000000" fill-rule="evenodd"/>
</svg>