<svg xmlns="http://www.w3.org/2000/svg" width="512" height="512" viewBox="0 0 512 512" version="1.1">
	<path d="M 112 1.307 C 110.075 1.914, 106.188 4.714, 103.361 7.529 C 99.133 11.740, 98.001 13.638, 96.971 18.239 C 94.278 30.272, 101.488 42.698, 113.095 46.027 C 114.961 46.562, 121.125 47, 126.793 47 C 137.490 47, 142.122 48.269, 143.379 51.545 C 144.679 54.933, 143.962 59.129, 141.696 61.395 C 139.659 63.432, 138.126 63.763, 128.446 64.259 C 115.385 64.928, 106.828 67.373, 98.334 72.863 C 67.808 92.592, 63.319 133.910, 88.964 159.101 C 98.864 168.826, 112.811 175, 124.881 175 C 128.321 175, 128.956 175.452, 131.903 180 C 135.580 185.675, 141.942 189.914, 148 190.727 L 152 191.263 152 288.132 L 152 385 149.196 385 C 144.964 385, 136.507 389.647, 133.453 393.651 C 125.613 403.930, 127.090 417.925, 136.883 426.147 L 140.795 429.431 131.892 447.216 C 123.104 464.772, 122.948 465, 119.745 465.006 C 104.736 465.031, 93.669 479.005, 96.971 493.761 C 98.001 498.365, 99.130 500.255, 103.361 504.460 C 106.600 507.680, 110.022 510.017, 112.616 510.784 C 115.761 511.713, 149.630 512, 256.240 512 C 410.257 512, 400.873 512.390, 407.834 505.707 C 413.090 500.662, 415.409 495.401, 415.417 488.500 C 415.425 481.664, 413.503 476.917, 408.764 472.070 C 404.476 467.683, 400.759 465.934, 394.319 465.269 L 388.863 464.706 380.034 447.069 L 371.205 429.431 375.117 426.147 C 384.910 417.925, 386.387 403.930, 378.547 393.651 C 375.493 389.647, 367.036 385, 362.804 385 L 360 385 360 288.132 L 360 191.263 364 190.727 C 370.058 189.914, 376.420 185.675, 380.097 180 C 383.044 175.452, 383.679 175, 387.119 175 C 399.057 175, 413.293 168.675, 423.111 159.009 C 434.567 147.730, 441.133 130.362, 439.599 115.395 C 437.753 97.372, 428.756 82.615, 413.666 72.863 C 405.172 67.373, 396.615 64.928, 383.554 64.259 C 373.874 63.763, 372.341 63.432, 370.304 61.395 C 368.038 59.129, 367.321 54.933, 368.621 51.545 C 369.878 48.269, 374.510 47, 385.207 47 C 400.082 47, 405.576 44.900, 411.213 37.058 C 417.831 27.850, 417.143 16.712, 409.425 8.128 C 401.510 -0.676, 414.204 -0.014, 255.572 0.102 C 156.503 0.174, 114.475 0.527, 112 1.307 M 113.923 17.923 C 112.161 19.685, 111 21.900, 111 23.500 C 111 25.100, 112.161 27.315, 113.923 29.077 L 116.846 32 143.288 32 C 168.525 32, 169.850 32.094, 172.365 34.073 C 175.809 36.782, 175.957 41.752, 172.686 44.826 C 170.846 46.554, 169.153 47, 164.436 47 L 158.500 47 158.500 55.500 L 158.500 64 256 64 L 353.500 64 353.500 55.500 L 353.500 47 275.832 47 C 233.114 47, 197.435 46.720, 196.545 46.379 C 193.735 45.301, 191.862 40.492, 193.043 37.388 C 195.174 31.781, 189.674 32.066, 296.327 32.032 L 395.154 32 398.077 29.077 C 401.870 25.284, 401.870 21.716, 398.077 17.923 L 395.154 15 256 15 L 116.846 15 113.923 17.923 M 118.754 80.084 C 112.362 81.591, 103.709 86.617, 98.815 91.666 C 79.346 111.752, 85.355 144.273, 110.759 156.307 C 116.799 159.168, 118.444 159.500, 126.574 159.500 C 134.928 159.500, 136.037 159.260, 140.548 156.474 C 153.059 148.745, 155.820 131.160, 146.274 120.007 C 141.617 114.567, 135.792 111.662, 129.357 111.572 C 123.175 111.485, 120.343 113.565, 119.396 118.887 C 118.016 126.637, 111.363 129.454, 106.330 124.420 C 104.078 122.169, 103.827 121.277, 104.358 117.403 C 105.456 109.397, 110.240 102.494, 117.158 98.935 C 132.300 91.145, 155.222 101.376, 163.791 119.747 C 166.090 124.674, 166.477 126.827, 166.487 134.746 L 166.500 143.992 256 143.992 L 345.500 143.992 345.513 134.746 C 345.523 126.827, 345.910 124.674, 348.209 119.747 C 356.778 101.376, 379.700 91.145, 394.842 98.935 C 401.760 102.494, 406.544 109.397, 407.642 117.403 C 408.173 121.277, 407.922 122.169, 405.670 124.420 C 400.637 129.454, 393.984 126.637, 392.604 118.887 C 391.657 113.565, 388.825 111.485, 382.643 111.572 C 376.154 111.663, 370.376 114.574, 365.593 120.162 C 356.121 131.228, 358.949 148.750, 371.452 156.474 C 375.963 159.260, 377.072 159.500, 385.426 159.500 C 393.556 159.500, 395.201 159.168, 401.241 156.307 C 421.918 146.512, 430.584 122.006, 420.516 101.804 C 415.349 91.435, 404.212 82.671, 392.885 80.060 C 387.370 78.788, 124.152 78.811, 118.754 80.084 M 178.821 99.025 C 176.396 101.450, 175.924 102.591, 176.441 104.775 C 176.795 106.274, 178.016 108.287, 179.153 109.250 C 181.083 110.883, 186.237 111, 256 111 C 327.182 111, 330.888 110.911, 333.056 109.156 C 336.352 106.487, 336.142 101.379, 332.611 98.342 L 329.888 96 255.867 96 L 181.846 96 178.821 99.025 M 156.709 162.506 C 155.174 164.355, 151.912 167.135, 149.461 168.684 C 144.549 171.787, 144.158 172.641, 146.750 174.608 C 149.343 176.577, 362.657 176.577, 365.250 174.608 C 367.841 172.641, 367.451 171.787, 362.550 168.691 C 360.104 167.146, 356.744 164.333, 355.082 162.441 L 352.061 159 255.781 159.072 L 159.500 159.144 156.709 162.506 M 167.672 191.661 C 167.302 192.031, 167 235.683, 167 288.667 L 167 385 229 385 C 289.667 385, 291.043 385.043, 293 387 C 296.250 390.250, 296.010 394.500, 292.393 397.750 L 289.888 400 219.033 400 L 148.178 400 145.500 403.182 C 142.251 407.043, 142.640 411.305, 146.555 414.750 L 149.112 417 256 417 L 362.888 417 365.445 414.750 C 369.360 411.305, 369.749 407.043, 366.500 403.182 L 363.822 400 341.046 400 C 319.518 400, 318.125 399.886, 315.635 397.927 C 312.333 395.330, 312.022 389.978, 315 387 C 316.810 385.190, 318.333 385, 331.005 385 L 345.010 385 344.755 288.250 L 344.500 191.500 256.422 191.245 C 207.979 191.104, 168.042 191.292, 167.672 191.661 M 188.797 209.414 C 183.926 211.842, 183.993 210.675, 184.254 289.337 L 184.500 363.174 187.391 365.660 C 190.541 368.369, 193.959 368.233, 197.250 365.267 C 198.887 363.792, 199 358.845, 199 288.568 C 199 206.963, 199.197 209.844, 193.557 208.766 C 192.181 208.503, 190.039 208.795, 188.797 209.414 M 221.020 209.292 C 215.892 211.871, 215.991 210.204, 216.254 289.337 L 216.500 363.174 219.391 365.660 C 222.541 368.369, 225.959 368.233, 229.250 365.267 C 230.887 363.792, 231 358.818, 231 288 C 231 217.166, 230.888 212.211, 229.250 210.773 C 226.574 208.423, 223.754 207.916, 221.020 209.292 M 254 208.719 C 253.175 209.017, 251.713 209.947, 250.750 210.785 C 249.112 212.212, 249 217.166, 249 288.082 L 249 363.855 251.635 365.927 C 254.959 368.542, 257.041 368.542, 260.365 365.927 L 263 363.855 263 288.082 C 263 217.170, 262.888 212.211, 261.250 210.773 C 259.092 208.879, 255.992 208, 254 208.719 M 286 208.719 C 285.175 209.017, 283.712 209.947, 282.750 210.785 C 281.112 212.212, 281 217.166, 281 288.082 L 281 363.855 283.635 365.927 C 287.065 368.626, 289.257 368.543, 292.694 365.586 L 295.500 363.173 295.500 288.114 C 295.500 214.363, 295.465 213.022, 293.500 211.132 C 291.195 208.916, 288.160 207.939, 286 208.719 M 318.500 208.801 C 317.400 209.024, 315.712 209.905, 314.750 210.758 C 313.112 212.210, 313 217.172, 313 288 C 313 358.818, 313.113 363.792, 314.750 365.267 C 318.041 368.233, 321.459 368.369, 324.609 365.660 L 327.500 363.173 327.500 288.192 C 327.500 217.164, 327.404 213.104, 325.685 211.205 C 323.639 208.944, 321.436 208.207, 318.500 208.801 M 148.240 448.500 L 140.008 465 256 465 L 371.992 465 363.760 448.500 L 355.528 432 256 432 L 156.472 432 148.240 448.500 M 113.923 482.923 C 112.161 484.685, 111 486.900, 111 488.500 C 111 490.100, 112.161 492.315, 113.923 494.077 L 116.846 497 256 497 L 395.154 497 398.077 494.077 C 401.870 490.284, 401.870 486.716, 398.077 482.923 L 395.154 480 256 480 L 116.846 480 113.923 482.923" stroke="none" fill="#000000" fill-rule="evenodd"/>
</svg>