<?xml version="1.0" encoding="iso-8859-1"?>
<!-- Uploaded to: SVG Repo, www.svgrepo.com, Generator: SVG Repo Mixer Tools -->
<svg fill="#000000" height="800px" width="800px" version="1.1" id="Layer_1" xmlns="http://www.w3.org/2000/svg" xmlns:xlink="http://www.w3.org/1999/xlink" 
	 viewBox="0 0 512 512" xml:space="preserve">
<g>
	<g>
		<path d="M474.054,451.073h-26.188V189.729C447.866,85.112,361.796,0,256,0c-40.292,0-78.854,12.214-111.52,35.322
			c-3.614,2.558-4.472,7.56-1.914,11.174c2.557,3.616,7.559,4.472,11.174,1.915C183.683,27.23,219.043,16.033,256,16.033
			c96.955,0,175.833,77.919,175.833,173.695v261.344H80.167V189.729c0-44.15,16.785-86.229,47.261-118.487
			c3.041-3.218,2.897-8.292-0.322-11.332c-3.219-3.043-8.292-2.899-11.333,0.322c-33.3,35.246-51.639,81.237-51.639,129.497v261.344
			H37.946c-4.427,0-8.017,3.588-8.017,8.017v44.894c0,4.428,3.589,8.017,8.017,8.017H371.44c4.427,0,8.017-3.588,8.017-8.017
			c0-4.428-3.589-8.017-8.017-8.017H45.962v-28.86h420.075v28.86h-51.841c-4.427,0-8.017,3.588-8.017,8.017
			c0,4.428,3.589,8.017,8.017,8.017h59.858c4.427,0,8.017-3.588,8.017-8.017V459.09
			C482.071,454.661,478.482,451.073,474.054,451.073z"/>
	</g>
</g>
<g>
	<g>
		<path d="M256,32.067c-88.114,0-159.8,70.727-159.8,157.662c0,4.428,3.589,8.017,8.017,8.017h303.566
			c4.427,0,8.017-3.588,8.017-8.017C415.8,102.793,344.114,32.067,256,32.067z M112.461,181.712
			C116.692,107.33,179.457,48.1,256,48.1s139.308,59.229,143.539,133.612H112.461z"/>
	</g>
</g>
<g>
	<g>
		<path d="M407.783,215.917H277.378c-4.427,0-8.017,3.588-8.017,8.017v203.09c0,4.428,3.589,8.017,8.017,8.017h130.405
			c4.427,0,8.017-3.588,8.017-8.017v-203.09C415.8,219.505,412.21,215.917,407.783,215.917z M399.766,419.006H285.395V231.95
			h114.372V419.006z"/>
	</g>
</g>
<g>
	<g>
		<path d="M234.622,215.917H104.217c-4.427,0-8.017,3.588-8.017,8.017v203.09c0,4.428,3.589,8.017,8.017,8.017h130.405
			c4.427,0,8.017-3.588,8.017-8.017v-203.09C242.639,219.505,239.049,215.917,234.622,215.917z M226.605,419.006H112.234V231.95
			h114.372V419.006z"/>
	</g>
</g>
<g>
	<g>
		<path d="M318.32,89.997c-3.13-3.129-8.207-3.129-11.337,0l-57.72,57.72c-3.131,3.132-3.131,8.207,0,11.338
			c1.565,1.565,3.617,2.347,5.668,2.347s4.104-0.782,5.668-2.347l57.72-57.72C321.45,98.202,321.45,93.127,318.32,89.997z"/>
	</g>
</g>
<g>
	<g>
		<path d="M262.737,89.997c-3.131-3.13-8.207-3.13-11.337,0l-57.72,57.72c-3.131,3.132-3.131,8.207,0,11.338
			c1.565,1.565,3.617,2.347,5.668,2.347s4.104-0.782,5.668-2.347l57.72-57.72C265.868,98.204,265.868,93.128,262.737,89.997z"/>
	</g>
</g>
<g>
	<g>
		<path d="M383.522,290.95c-3.131-3.13-8.207-3.13-11.337,0l-34.205,34.205c-3.131,3.131-3.131,8.206,0,11.338
			c3.089,3.088,8.249,3.088,11.337,0l34.205-34.205C386.653,299.156,386.653,294.08,383.522,290.95z"/>
	</g>
</g>
<g>
	<g>
		<path d="M345.042,290.95c-3.131-3.13-8.207-3.13-11.337,0l-34.205,34.205c-4.938,4.938-1.344,13.685,5.668,13.685
			c2.051,0,4.103-0.782,5.668-2.347l34.205-34.205C348.173,299.156,348.173,294.08,345.042,290.95z"/>
	</g>
</g>
<g>
	<g>
		<path d="M208.224,290.95c-3.131-3.13-8.207-3.13-11.337,0l-34.205,34.205c-3.131,3.131-3.131,8.206,0,11.338
			c3.089,3.088,8.249,3.088,11.337,0l34.205-34.205C211.354,299.156,211.354,294.08,208.224,290.95z"/>
	</g>
</g>
<g>
	<g>
		<path d="M169.744,290.95c-3.131-3.13-8.207-3.13-11.337,0l-34.205,34.205c-4.938,4.938-1.344,13.685,5.668,13.685
			c2.051,0,4.104-0.782,5.668-2.347l34.205-34.205C172.874,299.156,172.874,294.08,169.744,290.95z"/>
	</g>
</g>
</svg>